<svg xmlns="http://www.w3.org/2000/svg" xmlns:xlink="http://www.w3.org/1999/xlink" width="104.997" height="80.724" viewBox="0 0 104.997 80.724">
  <defs>
    <clipPath id="clip-path">
      <rect id="Rectangle_134" data-name="Rectangle 134" width="104.997" height="80.724" transform="translate(0 0)" fill="none" stroke="#3c3f40" stroke-width="1"/>
    </clipPath>
  </defs>
  <g id="Group_44" data-name="Group 44" transform="translate(0 0)">
    <g id="Group_43" data-name="Group 43" clip-path="url(#clip-path)">
      <path id="Path_65" data-name="Path 65" d="M49.463,22.29V41.6H39.735a20.629,20.629,0,0,0,2.389-9.641,20.416,20.416,0,0,0-2.418-9.669Z" fill="none" stroke="#3c3f40" stroke-linecap="round" stroke-linejoin="round" stroke-width="2"/>
      <path id="Rectangle_133" data-name="Rectangle 133" d="M2.912,0H51.628a2.913,2.913,0,0,1,2.913,2.913V32.64a2.912,2.912,0,0,1-2.912,2.912H2.912A2.912,2.912,0,0,1,0,32.64V2.912A2.912,2.912,0,0,1,2.912,0Z" transform="translate(49.456 14.177)" fill="none" stroke="#3c3f40" stroke-linecap="round" stroke-linejoin="round" stroke-width="2"/>
      <path id="Path_66" data-name="Path 66" d="M62.533,42.233H56.952V38.141" fill="none" stroke="#3c3f40" stroke-linecap="round" stroke-linejoin="round" stroke-width="2"/>
      <path id="Path_67" data-name="Path 67" d="M56.952,26.482v-4.81h5.023" fill="none" stroke="#3c3f40" stroke-linecap="round" stroke-linejoin="round" stroke-width="2"/>
      <path id="Path_68" data-name="Path 68" d="M91.24,42.233h5.581V38.141" fill="none" stroke="#3c3f40" stroke-linecap="round" stroke-linejoin="round" stroke-width="2"/>
      <path id="Path_69" data-name="Path 69" d="M96.821,26.482v-4.81H91.8" fill="none" stroke="#3c3f40" stroke-linecap="round" stroke-linejoin="round" stroke-width="2"/>
      <path id="Path_70" data-name="Path 70" d="M36.1,14.426V17.4A20.531,20.531,0,0,0,7,17.426v-3A13.448,13.448,0,0,1,20.426,1H22.7A13.424,13.424,0,0,1,36.1,14.426Z" fill="none" stroke="#3c3f40" stroke-linecap="round" stroke-linejoin="round" stroke-width="2"/>
      <path id="Path_71" data-name="Path 71" d="M21.562,52.522A20.419,20.419,0,0,0,36.1,46.493V66.3A13.424,13.424,0,0,1,22.7,79.724H20.426A13.448,13.448,0,0,1,7,66.3V46.464A20.439,20.439,0,0,0,21.562,52.522Z" fill="none" stroke="#3c3f40" stroke-linecap="round" stroke-linejoin="round" stroke-width="2"/>
      <path id="Path_72" data-name="Path 72" d="M42.124,31.96a20.622,20.622,0,0,1-2.389,9.64,20,20,0,0,1-3.64,4.893,20.577,20.577,0,1,1,0-29.095,20.63,20.63,0,0,1,3.611,4.893A20.416,20.416,0,0,1,42.124,31.96Z" fill="none" stroke="#3c3f40" stroke-linecap="round" stroke-linejoin="round" stroke-width="2"/>
      <circle id="Ellipse_4" data-name="Ellipse 4" cx="14.548" cy="14.548" r="14.548" transform="translate(7.014 17.405)" fill="none" stroke="#3c3f40" stroke-linecap="round" stroke-linejoin="round" stroke-width="2"/>
      <circle id="Ellipse_5" data-name="Ellipse 5" cx="1.868" cy="1.868" r="1.868" transform="translate(14.031 25.03)" fill="none" stroke="#3c3f40" stroke-linecap="round" stroke-linejoin="round" stroke-width="2"/>
    </g>
  </g>
</svg>
