<svg xmlns="http://www.w3.org/2000/svg" xmlns:xlink="http://www.w3.org/1999/xlink" width="106.088" height="92.247" viewBox="0 0 106.088 92.247">
  <defs>
    <clipPath id="clip-path">
      <rect id="Rectangle_128" data-name="Rectangle 128" width="106.088" height="92.247" transform="translate(0 0)" fill="none" stroke="#3c3f40" stroke-width="1"/>
    </clipPath>
  </defs>
  <g id="Group_36" data-name="Group 36" transform="translate(0 0)">
    <g id="Group_35" data-name="Group 35" clip-path="url(#clip-path)">
      <path id="Path_39" data-name="Path 39" d="M93.147,52.371A21.1,21.1,0,1,1,72.032,31.285,21.086,21.086,0,0,1,93.147,52.371Z" fill="none" stroke="#3c3f40" stroke-linecap="round" stroke-linejoin="round" stroke-width="2"/>
      <path id="Path_40" data-name="Path 40" d="M99.263,18.237H25.2V86.5H99.263a5.842,5.842,0,0,0,5.824-5.825V24.062A5.842,5.842,0,0,0,99.263,18.237Zm1.281,34.134A28.509,28.509,0,1,1,87.787,28.6,28.495,28.495,0,0,1,100.544,52.371Z" fill="none" stroke="#3c3f40" stroke-linecap="round" stroke-linejoin="round" stroke-width="2"/>
      <path id="Path_41" data-name="Path 41" d="M56.275,76.136H25.2V28.6h4.689a5.607,5.607,0,0,0,11.213,0H56.275a28.553,28.553,0,0,0,0,47.531Z" fill="none" stroke="#3c3f40" stroke-linecap="round" stroke-linejoin="round" stroke-width="2"/>
      <path id="Path_42" data-name="Path 42" d="M93.147,52.371A21.1,21.1,0,1,1,72.032,31.285,21.086,21.086,0,0,1,93.147,52.371Z" fill="none" stroke="#3c3f40" stroke-linecap="round" stroke-linejoin="round" stroke-width="2"/>
      <path id="Path_43" data-name="Path 43" d="M105.088,28.6V76.136h-17.3a28.515,28.515,0,0,0,0-47.531Z" fill="none" stroke="#3c3f40" stroke-linecap="round" stroke-linejoin="round" stroke-width="2"/>
      <rect id="Rectangle_126" data-name="Rectangle 126" width="24.187" height="77.753" rx="4.754" transform="translate(1 13.494)" fill="none" stroke="#3c3f40" stroke-linecap="round" stroke-linejoin="round" stroke-width="2"/>
      <rect id="Rectangle_127" data-name="Rectangle 127" width="11.92" height="5.017" transform="translate(7.133 8.477)" fill="none" stroke="#3c3f40" stroke-linecap="round" stroke-linejoin="round" stroke-width="2"/>
      <path id="Path_44" data-name="Path 44" d="M41.1,28.6a5.607,5.607,0,1,1-5.621-5.592A5.6,5.6,0,0,1,41.1,28.6Z" fill="none" stroke="#3c3f40" stroke-linecap="round" stroke-linejoin="round" stroke-width="2"/>
      <path id="Path_45" data-name="Path 45" d="M87.787,28.6a28.515,28.515,0,1,0,12.757,23.766A28.368,28.368,0,0,0,87.787,28.6ZM72.031,73.457A21.087,21.087,0,1,1,93.146,52.371,21.08,21.08,0,0,1,72.031,73.457Z" fill="none" stroke="#3c3f40" stroke-linecap="round" stroke-linejoin="round" stroke-width="2"/>
      <path id="Path_46" data-name="Path 46" d="M93.147,52.371A21.1,21.1,0,1,1,72.032,31.285,21.086,21.086,0,0,1,93.147,52.371Z" fill="none" stroke="#3c3f40" stroke-linecap="round" stroke-linejoin="round" stroke-width="2"/>
      <path id="Path_47" data-name="Path 47" d="M93.147,52.371A21.1,21.1,0,1,1,72.032,31.285,21.086,21.086,0,0,1,93.147,52.371Z" fill="none" stroke="#3c3f40" stroke-linecap="round" stroke-linejoin="round" stroke-width="2"/>
      <path id="Path_48" data-name="Path 48" d="M59.382,52.371A12.662,12.662,0,0,1,72.045,39.708" fill="none" stroke="#3c3f40" stroke-linecap="round" stroke-linejoin="round" stroke-width="2"/>
      <path id="Path_49" data-name="Path 49" d="M92.127,18.247H51.963L56.718,5.713A7.3,7.3,0,0,1,63.546,1h17a7.3,7.3,0,0,1,6.828,4.712Z" fill="none" stroke="#3c3f40" stroke-linecap="round" stroke-linejoin="round" stroke-width="2"/>
      <line id="Line_1" data-name="Line 1" x2="15.537" transform="translate(64.276 6.807)" fill="none" stroke="#3c3f40" stroke-linecap="round" stroke-linejoin="round" stroke-width="2"/>
    </g>
  </g>
</svg>
