<svg id="Group_62" data-name="Group 62" xmlns="http://www.w3.org/2000/svg" xmlns:xlink="http://www.w3.org/1999/xlink" width="103.02" height="104.06" viewBox="0 0 103.02 104.06">
  <defs>
    <clipPath id="clip-path">
      <rect id="Rectangle_155" data-name="Rectangle 155" width="103.02" height="104.06" fill="none" stroke="#bf9d8a" stroke-width="1"/>
    </clipPath>
  </defs>
  <g id="Group_61" data-name="Group 61" clip-path="url(#clip-path)">
    <path id="Path_102" data-name="Path 102" d="M69.438,64.125A18.389,18.389,0,1,1,51.05,45.737,18.388,18.388,0,0,1,69.438,64.125Z" fill="none" stroke="#bf9d8a" stroke-linecap="round" stroke-linejoin="round" stroke-width="2"/>
    <path id="Path_103" data-name="Path 103" d="M40.014,64.125A11.036,11.036,0,0,1,51.05,53.089" fill="none" stroke="#bf9d8a" stroke-linecap="round" stroke-linejoin="round" stroke-width="2"/>
    <line id="Line_33" data-name="Line 33" x2="12.204" transform="translate(44.948 35.383)" fill="none" stroke="#bf9d8a" stroke-linecap="round" stroke-linejoin="round" stroke-width="2"/>
    <path id="Path_104" data-name="Path 104" d="M75.381,40.02H65.236l-3.359-8.854a5.158,5.158,0,0,0-4.823-3.329H45.047a5.16,5.16,0,0,0-4.824,3.329L36.864,40.02H33.077V37.01H27.308v3.01h-.589a6.952,6.952,0,0,0-6.952,6.953V81.278a6.952,6.952,0,0,0,6.952,6.952H75.381a6.953,6.953,0,0,0,6.953-6.952V46.973A6.953,6.953,0,0,0,75.381,40.02Z" fill="none" stroke="#bf9d8a" stroke-linecap="round" stroke-linejoin="round" stroke-width="2"/>
    <path id="Path_105" data-name="Path 105" d="M17.729,1c8.34,0,8.34,5.343,16.681,5.343S42.758,1,51.1,1s8.354,5.343,16.707,5.343S76.166,1,84.519,1" fill="none" stroke="#bf9d8a" stroke-linecap="round" stroke-linejoin="round" stroke-width="2"/>
    <path id="Path_106" data-name="Path 106" d="M17.729,13.243c8.34,0,8.34,5.343,16.681,5.343s8.348-5.343,16.695-5.343,8.354,5.343,16.707,5.343,8.354-5.343,16.707-5.343" fill="none" stroke="#bf9d8a" stroke-linecap="round" stroke-linejoin="round" stroke-width="2"/>
    <rect id="Rectangle_154" data-name="Rectangle 154" width="98.521" height="7.912" transform="translate(2.307 95.148)" fill="none" stroke="#bf9d8a" stroke-linecap="round" stroke-linejoin="round" stroke-width="2"/>
    <path id="Path_107" data-name="Path 107" d="M10.961,94.9H2.307L1,51.54a5.634,5.634,0,1,1,11.263,0Z" fill="none" stroke="#bf9d8a" stroke-linecap="round" stroke-linejoin="round" stroke-width="2"/>
    <path id="Path_108" data-name="Path 108" d="M100.713,94.9H92.059l-1.3-43.363a5.634,5.634,0,1,1,11.263,0Z" fill="none" stroke="#bf9d8a" stroke-linecap="round" stroke-linejoin="round" stroke-width="2"/>
  </g>
</svg>
