<svg id="Group_53" data-name="Group 53" xmlns="http://www.w3.org/2000/svg" xmlns:xlink="http://www.w3.org/1999/xlink" width="84.816" height="104.494" viewBox="0 0 84.816 104.494">
  <defs>
    <clipPath id="clip-path">
      <rect id="Rectangle_148" data-name="Rectangle 148" width="84.816" height="104.494" fill="none" stroke="#3c3f40" stroke-width="1"/>
    </clipPath>
  </defs>
  <g id="Group_52" data-name="Group 52" clip-path="url(#clip-path)">
    <path id="Path_81" data-name="Path 81" d="M72.06,12.756C57.463,1.612,23.778,27.688,23.778,27.688c2.2-14.362-13.122-13.122-13.122-13.122C47.826-11.846,66.463,7.527,72.06,12.756Z" fill="none" stroke="#3c3f40" stroke-linecap="round" stroke-linejoin="round" stroke-width="2"/>
    <path id="Path_82" data-name="Path 82" d="M72.06,12.756S45.146,39.671,40.452,44.363c0,0-.418-15.669-16.64-16.675h-.034S57.463,1.612,72.06,12.756Z" fill="none" stroke="#3c3f40" stroke-linecap="round" stroke-linejoin="round" stroke-width="2"/>
    <path id="Path_83" data-name="Path 83" d="M70.25,74.16s1.24-15.318-13.139-13.139c0,0,26.093-33.668,14.949-48.265C77.289,18.353,96.662,36.989,70.25,74.16Z" fill="none" stroke="#3c3f40" stroke-linecap="round" stroke-linejoin="round" stroke-width="2"/>
    <path id="Path_84" data-name="Path 84" d="M57.111,61.021v-.033c-.989-16.206-16.658-16.625-16.658-16.625L72.06,12.756C83.2,27.353,57.111,61.021,57.111,61.021Z" fill="none" stroke="#3c3f40" stroke-linecap="round" stroke-linejoin="round" stroke-width="2"/>
    <path id="Path_85" data-name="Path 85" d="M76.487,8.326,17.358,67.453" fill="none" stroke="#3c3f40" stroke-linecap="round" stroke-linejoin="round" stroke-width="2"/>
    <path id="Path_86" data-name="Path 86" d="M38.194,8.081a43.674,43.674,0,0,0-14.416,6.263" fill="none" stroke="#3c3f40" stroke-linecap="round" stroke-linejoin="round" stroke-width="2"/>
    <circle id="Ellipse_7" data-name="Ellipse 7" cx="5.138" cy="5.138" r="5.138" transform="translate(8.447 65.893)" fill="none" stroke="#3c3f40" stroke-linecap="round" stroke-linejoin="round" stroke-width="2"/>
    <line id="Line_24" data-name="Line 24" y2="27.325" transform="translate(13.585 76.169)" fill="none" stroke="#3c3f40" stroke-linecap="round" stroke-linejoin="round" stroke-width="2"/>
    <line id="Line_25" data-name="Line 25" x1="11.612" y2="26.92" transform="translate(1 76.574)" fill="none" stroke="#3c3f40" stroke-linecap="round" stroke-linejoin="round" stroke-width="2"/>
    <line id="Line_26" data-name="Line 26" x2="11.613" y2="26.92" transform="translate(14.557 76.574)" fill="none" stroke="#3c3f40" stroke-linecap="round" stroke-linejoin="round" stroke-width="2"/>
    <path id="Path_87" data-name="Path 87" d="M13.585,65.893V55.733l5.859-5.86" fill="none" stroke="#3c3f40" stroke-linecap="round" stroke-linejoin="round" stroke-width="2"/>
    <line id="Line_27" data-name="Line 27" x2="6.081" transform="translate(10.544 103.494)" fill="none" stroke="#3c3f40" stroke-linecap="round" stroke-linejoin="round" stroke-width="2"/>
  </g>
</svg>
