<svg xmlns="http://www.w3.org/2000/svg" xmlns:xlink="http://www.w3.org/1999/xlink" width="33" height="33" viewBox="0 0 33 33">
  <defs>
    <clipPath id="clip-path">
      <rect id="Rectangle_182" data-name="Rectangle 182" width="33" height="33" transform="translate(-0.019 -0.396)" fill="#3c3f40"/>
    </clipPath>
  </defs>
  <g id="Group_71" data-name="Group 71" transform="translate(0.019 0.396)">
    <g id="Group_70" data-name="Group 70" transform="translate(0 0)" clip-path="url(#clip-path)">
      <path id="Path_125" data-name="Path 125" d="M16.515,2.976c4.41,0,4.932.017,6.674.1a9.138,9.138,0,0,1,3.067.569,5.118,5.118,0,0,1,1.9,1.235,5.117,5.117,0,0,1,1.235,1.9,9.139,9.139,0,0,1,.569,3.067c.079,1.742.1,2.264.1,6.674s-.017,4.932-.1,6.674a9.139,9.139,0,0,1-.569,3.067,5.47,5.47,0,0,1-3.135,3.135,9.138,9.138,0,0,1-3.067.569c-1.741.079-2.264.1-6.674.1s-4.933-.017-6.674-.1a9.138,9.138,0,0,1-3.067-.569,5.119,5.119,0,0,1-1.9-1.235,5.118,5.118,0,0,1-1.235-1.9,9.14,9.14,0,0,1-.569-3.067c-.079-1.742-.1-2.264-.1-6.674s.017-4.932.1-6.674A9.14,9.14,0,0,1,3.64,6.775a5.118,5.118,0,0,1,1.235-1.9,5.119,5.119,0,0,1,1.9-1.235,9.138,9.138,0,0,1,3.067-.569c1.742-.079,2.264-.1,6.674-.1m0-2.976c-4.486,0-5.048.019-6.81.1A12.124,12.124,0,0,0,5.7.867,8.1,8.1,0,0,0,2.771,2.772,8.1,8.1,0,0,0,.866,5.7,12.123,12.123,0,0,0,.1,9.707c-.08,1.762-.1,2.324-.1,6.81s.019,5.048.1,6.81a12.123,12.123,0,0,0,.768,4.009A8.1,8.1,0,0,0,2.771,30.26,8.1,8.1,0,0,0,5.7,32.165a12.124,12.124,0,0,0,4.009.768c1.761.08,2.324.1,6.81.1s5.048-.019,6.809-.1a12.124,12.124,0,0,0,4.009-.768,8.445,8.445,0,0,0,4.83-4.83,12.123,12.123,0,0,0,.768-4.009c.08-1.762.1-2.324.1-6.81s-.019-5.048-.1-6.81A12.123,12.123,0,0,0,32.164,5.7a8.1,8.1,0,0,0-1.905-2.925A8.1,8.1,0,0,0,27.334.867,12.124,12.124,0,0,0,23.325.1C21.563.019,21,0,16.515,0" transform="translate(0.079 -0.428)" fill="#3c3f40"/>
      <path id="Path_126" data-name="Path 126" d="M131.036,122.556a8.481,8.481,0,1,0,8.481,8.481,8.481,8.481,0,0,0-8.481-8.481m0,13.987a5.505,5.505,0,1,1,5.505-5.505,5.505,5.505,0,0,1-5.505,5.505" transform="translate(-114.442 -114.95)" fill="#3c3f40"/>
      <path id="Path_127" data-name="Path 127" d="M360.13,89.2a1.982,1.982,0,1,1-1.982-1.982A1.982,1.982,0,0,1,360.13,89.2" transform="translate(-332.738 -81.926)" fill="#3c3f40"/>
    </g>
  </g>
</svg>
