<svg xmlns="http://www.w3.org/2000/svg" xmlns:xlink="http://www.w3.org/1999/xlink" width="99.493" height="105.723" viewBox="0 0 99.493 105.723">
  <defs>
    <clipPath id="clip-path">
      <rect id="Rectangle_160" data-name="Rectangle 160" width="99.493" height="105.723" transform="translate(0 0)" fill="none" stroke="#3c3f40" stroke-width="1"/>
    </clipPath>
  </defs>
  <g id="Group_64" data-name="Group 64" transform="translate(0 0)">
    <g id="Group_63" data-name="Group 63" clip-path="url(#clip-path)">
      <rect id="Rectangle_156" data-name="Rectangle 156" width="88.973" height="8.52" transform="translate(1 24.269)" fill="none" stroke="#3c3f40" stroke-linecap="round" stroke-linejoin="round" stroke-width="2"/>
      <rect id="Rectangle_157" data-name="Rectangle 157" width="88.973" height="8.519" transform="translate(9.519 96.204)" fill="none" stroke="#3c3f40" stroke-linecap="round" stroke-linejoin="round" stroke-width="2"/>
      <rect id="Rectangle_158" data-name="Rectangle 158" width="8.519" height="71.934" transform="translate(1 32.789)" fill="none" stroke="#3c3f40" stroke-linecap="round" stroke-linejoin="round" stroke-width="2"/>
      <rect id="Rectangle_159" data-name="Rectangle 159" width="8.52" height="71.935" transform="translate(89.973 24.269)" fill="none" stroke="#3c3f40" stroke-linecap="round" stroke-linejoin="round" stroke-width="2"/>
      <path id="Path_109" data-name="Path 109" d="M21.262,24.27S39.494,10.086,46.746,4.349" fill="none" stroke="#3c3f40" stroke-linecap="round" stroke-linejoin="round" stroke-width="2"/>
      <path id="Path_110" data-name="Path 110" d="M52.6,4.349C59.852,10.087,78.055,24.27,78.055,24.27" fill="none" stroke="#3c3f40" stroke-linecap="round" stroke-linejoin="round" stroke-width="2"/>
      <path id="Path_111" data-name="Path 111" d="M44.767,45.512a6.74,6.74,0,1,1-6.741-6.741A6.741,6.741,0,0,1,44.767,45.512Z" fill="none" stroke="#3c3f40" stroke-linecap="round" stroke-linejoin="round" stroke-width="2"/>
      <path id="Path_112" data-name="Path 112" d="M40.426,81.325,31.6,96.091H10.486L30.32,67.2Z" fill="none" stroke="#3c3f40" stroke-linecap="round" stroke-linejoin="round" stroke-width="2"/>
      <path id="Path_113" data-name="Path 113" d="M89.443,96.092H72.755L67.4,86.976l7.572-11.038Z" fill="none" stroke="#3c3f40" stroke-linecap="round" stroke-linejoin="round" stroke-width="2"/>
      <path id="Path_114" data-name="Path 114" d="M72.755,96.092H31.6l8.824-14.766L52.309,61.434,67.4,86.976Z" fill="none" stroke="#3c3f40" stroke-linecap="round" stroke-linejoin="round" stroke-width="2"/>
      <path id="Path_115" data-name="Path 115" d="M52.63,3.941a1.933,1.933,0,0,1-.029.408,2.953,2.953,0,0,1-5.854,0,1.933,1.933,0,0,1-.029-.408,2.956,2.956,0,0,1,5.912,0Z" fill="none" stroke="#3c3f40" stroke-linecap="round" stroke-linejoin="round" stroke-width="2"/>
      <path id="Path_116" data-name="Path 116" d="M24.147,76.186l3.055,2.47,3.05-1.091,3.882,1.854,2.1-3.261" fill="none" stroke="#3c3f40" stroke-linecap="round" stroke-linejoin="round" stroke-width="2"/>
      <path id="Path_117" data-name="Path 117" d="M46.9,70.74l2.663,2.153,2.658-.951,3.383,1.616,1.835-2.842" fill="none" stroke="#3c3f40" stroke-linecap="round" stroke-linejoin="round" stroke-width="2"/>
      <path id="Path_118" data-name="Path 118" d="M71.572,81.638l1.87,1.511,1.866-.667,2.375,1.134,1.288-1.995" fill="none" stroke="#3c3f40" stroke-linecap="round" stroke-linejoin="round" stroke-width="2"/>
    </g>
  </g>
</svg>
