<svg id="Group_58" data-name="Group 58" xmlns="http://www.w3.org/2000/svg" xmlns:xlink="http://www.w3.org/1999/xlink" width="56.45" height="103.261" viewBox="0 0 56.45 103.261">
  <defs>
    <clipPath id="clip-path">
      <rect id="Rectangle_149" data-name="Rectangle 149" width="56.45" height="103.261" fill="none" stroke="#bf9d8a" stroke-width="1"/>
    </clipPath>
  </defs>
  <g id="Group_55" data-name="Group 55">
    <g id="Group_54" data-name="Group 54" clip-path="url(#clip-path)">
      <line id="Line_28" data-name="Line 28" y2="48.254" transform="translate(28.225 54.007)" fill="none" stroke="#bf9d8a" stroke-linecap="round" stroke-linejoin="round" stroke-width="2"/>
      <path id="Path_88" data-name="Path 88" d="M1,102.261V95.55H55.45v6.711" fill="none" stroke="#bf9d8a" stroke-linecap="round" stroke-linejoin="round" stroke-width="2"/>
    </g>
  </g>
  <line id="Line_29" data-name="Line 29" x2="7.771" transform="translate(28.297 66.246)" fill="none" stroke="#bf9d8a" stroke-linecap="round" stroke-linejoin="round" stroke-width="2"/>
  <rect id="Rectangle_150" data-name="Rectangle 150" width="10.361" height="7.451" transform="translate(36.068 62.521)" fill="none" stroke="#bf9d8a" stroke-linecap="round" stroke-linejoin="round" stroke-width="2"/>
  <g id="Group_57" data-name="Group 57">
    <g id="Group_56" data-name="Group 56" clip-path="url(#clip-path)">
      <path id="Path_89" data-name="Path 89" d="M45,1,40.953,14.631l-5.039,1.485v.874a13.053,13.053,0,0,0-15.378,0v-.874L15.5,14.631,11.449,1Z" fill="none" stroke="#bf9d8a" stroke-linecap="round" stroke-linejoin="round" stroke-width="2"/>
      <path id="Path_90" data-name="Path 90" d="M45,54.007H11.449L15.5,40.377l5.038-1.486v-.844a13.057,13.057,0,0,0,15.378,0v.844l5.039,1.486Z" fill="none" stroke="#bf9d8a" stroke-linecap="round" stroke-linejoin="round" stroke-width="2"/>
      <path id="Path_91" data-name="Path 91" d="M18.235,19.145A12.762,12.762,0,0,0,15.177,27.5a12.9,12.9,0,0,0,3.058,8.388,13.479,13.479,0,0,0,2.3,2.155v.844L15.5,40.377,2.391,44.28V10.757L15.5,14.631l5.039,1.485v.874A12.354,12.354,0,0,0,18.235,19.145Z" fill="none" stroke="#bf9d8a" stroke-linecap="round" stroke-linejoin="round" stroke-width="2"/>
      <path id="Path_92" data-name="Path 92" d="M54.059,10.757V44.279l-13.106-3.9-5.039-1.485v-.844a13.479,13.479,0,0,0,2.3-2.155A12.9,12.9,0,0,0,41.273,27.5a12.762,12.762,0,0,0-3.058-8.359,12.355,12.355,0,0,0-2.3-2.155v-.874l5.039-1.485Z" fill="none" stroke="#bf9d8a" stroke-linecap="round" stroke-linejoin="round" stroke-width="2"/>
      <path id="Path_93" data-name="Path 93" d="M41.273,27.5a12.9,12.9,0,0,1-3.058,8.388,13.479,13.479,0,0,1-2.3,2.155,13.053,13.053,0,0,1-15.378,0,13.516,13.516,0,0,1-2.3-2.155A12.9,12.9,0,0,1,15.177,27.5a12.764,12.764,0,0,1,3.058-8.359,12.386,12.386,0,0,1,2.3-2.155,13.053,13.053,0,0,1,15.378,0,12.355,12.355,0,0,1,2.3,2.155A12.764,12.764,0,0,1,41.273,27.5Z" fill="none" stroke="#bf9d8a" stroke-linecap="round" stroke-linejoin="round" stroke-width="2"/>
      <path id="Path_94" data-name="Path 94" d="M20.347,27.508a7.878,7.878,0,0,1,7.878-7.878" fill="none" stroke="#bf9d8a" stroke-linecap="round" stroke-linejoin="round" stroke-width="2"/>
    </g>
  </g>
</svg>
