<svg id="Group_2" data-name="Group 2" xmlns="http://www.w3.org/2000/svg" xmlns:xlink="http://www.w3.org/1999/xlink" width="192" height="68.374" viewBox="0 0 192 68.374">
  <defs>
    <clipPath id="clip-path">
      <rect id="Rectangle_41" data-name="Rectangle 41" width="192" height="68.374" fill="#3c3f40"/>
    </clipPath>
  </defs>
  <g id="Group_1" data-name="Group 1" clip-path="url(#clip-path)">
    <path id="Path_2" data-name="Path 2" d="M34.187,0A34.187,34.187,0,1,0,68.374,34.187,34.226,34.226,0,0,0,34.187,0m0,65.321A31.134,31.134,0,1,1,65.321,34.187,31.169,31.169,0,0,1,34.187,65.321" fill="#3c3f40"/>
    <path id="Path_3" data-name="Path 3" d="M43.36,15.332A28.027,28.027,0,1,0,71.388,43.359,28.059,28.059,0,0,0,43.36,15.332M68.23,41.141,55.572,47.659l1.274-25.3A24.988,24.988,0,0,1,68.23,41.141M33.7,48.173,34.2,37.544l9.68-4.95,9.094,5.9-.542,10.778-9.509,4.9Zm20.176-27.46-.718,14.259L31.9,21.179a24.893,24.893,0,0,1,21.967-.466M29.008,22.94l11.919,7.736L18.416,42.188A24.962,24.962,0,0,1,29.008,22.94M18.49,45.579l12.579-6.432-1.2,25.211A24.987,24.987,0,0,1,18.49,45.579M32.845,66l.682-14.3L54.816,65.54A24.891,24.891,0,0,1,32.845,66M57.711,63.78,45.874,56.088,68.3,44.537A24.965,24.965,0,0,1,57.711,63.78" transform="translate(-9.173 -9.172)" fill="#3c3f40"/>
    <path id="Path_4" data-name="Path 4" d="M207.559,66.408a9.744,9.744,0,0,1-3.359-1.742l1.217-2.6a10.349,10.349,0,0,0,3,1.59,10.9,10.9,0,0,0,3.414.512A5.855,5.855,0,0,0,215,63.449a2.271,2.271,0,0,0,1.12-2.019,1.864,1.864,0,0,0-1.036-1.7,13.024,13.024,0,0,0-3.415-1.12,14.167,14.167,0,0,1-5.391-2.073,4.354,4.354,0,0,1-1.687-3.7,5.3,5.3,0,0,1,.94-3.1,6.273,6.273,0,0,1,2.668-2.129,9.7,9.7,0,0,1,3.995-.774,12.388,12.388,0,0,1,3.939.622,8.24,8.24,0,0,1,3.055,1.728L218,51.782a9.08,9.08,0,0,0-5.806-2.1,5.106,5.106,0,0,0-3.013.788,2.494,2.494,0,0,0-1.106,2.142,1.958,1.958,0,0,0,.981,1.77,11.63,11.63,0,0,0,3.359,1.133,23.982,23.982,0,0,1,4.009,1.258,5.969,5.969,0,0,1,2.378,1.742,4.212,4.212,0,0,1,.829,2.668,5.155,5.155,0,0,1-.94,3.083,6,6,0,0,1-2.709,2.032,11.062,11.062,0,0,1-4.175.719,14.372,14.372,0,0,1-4.244-.608" transform="translate(-122.164 -28.018)" fill="#3c3f40"/>
    <path id="Path_5" data-name="Path 5" d="M262.441,61.162V75.124h-3.4V72.885a4.489,4.489,0,0,1-1.825,1.811,5.564,5.564,0,0,1-2.71.65,5.952,5.952,0,0,1-3.235-.885,5.84,5.84,0,0,1-2.184-2.516,8.739,8.739,0,0,1-.774-3.787,8.888,8.888,0,0,1,.788-3.829,6.174,6.174,0,0,1,2.2-2.6,5.71,5.71,0,0,1,3.207-.926,5.564,5.564,0,0,1,2.71.65,4.491,4.491,0,0,1,1.825,1.811v-2.1ZM258.1,71.448a5.277,5.277,0,0,0,.94-3.346,5.378,5.378,0,0,0-.94-3.4,3.221,3.221,0,0,0-2.682-1.189,3.183,3.183,0,0,0-2.668,1.231,5.451,5.451,0,0,0-.954,3.415,5.1,5.1,0,0,0,.954,3.317,3.291,3.291,0,0,0,2.7,1.161,3.19,3.19,0,0,0,2.654-1.189" transform="translate(-148.555 -36.376)" fill="#3c3f40"/>
    <path id="Path_6" data-name="Path 6" d="M305.5,66.554v8.571h-3.456v-8.4a3.744,3.744,0,0,0-.636-2.419,2.415,2.415,0,0,0-1.963-.761,3.361,3.361,0,0,0-2.543,1.009,3.691,3.691,0,0,0-.968,2.668v7.907h-3.428V65.116a31.667,31.667,0,0,0-.221-3.954h3.235l.249,2.3a5.053,5.053,0,0,1,1.949-1.963A5.578,5.578,0,0,1,300.5,60.8q5,0,5,5.751" transform="translate(-174.862 -36.376)" fill="#3c3f40"/>
    <path id="Path_7" data-name="Path 7" d="M336.137,57.5v6.249q0,2.461,2.295,2.461a4.877,4.877,0,0,0,1.382-.221v2.737a6.5,6.5,0,0,1-2.212.332,4.817,4.817,0,0,1-3.649-1.328,5.3,5.3,0,0,1-1.272-3.815V57.5H330V54.9h2.682V51.5l3.456-1.161V54.9h3.7v2.6Z" transform="translate(-197.424 -30.118)" fill="#3c3f40"/>
    <path id="Path_8" data-name="Path 8" d="M372.618,61.162V75.124h-3.4V72.885a4.485,4.485,0,0,1-1.824,1.811,5.565,5.565,0,0,1-2.709.65,5.951,5.951,0,0,1-3.235-.885,5.84,5.84,0,0,1-2.184-2.516,8.739,8.739,0,0,1-.774-3.787,8.889,8.889,0,0,1,.788-3.829,6.174,6.174,0,0,1,2.2-2.6,5.711,5.711,0,0,1,3.208-.926,5.565,5.565,0,0,1,2.709.65,4.488,4.488,0,0,1,1.824,1.811v-2.1Zm-4.341,10.285a5.272,5.272,0,0,0,.94-3.346,5.373,5.373,0,0,0-.94-3.4,3.219,3.219,0,0,0-2.681-1.189,3.183,3.183,0,0,0-2.668,1.231,5.451,5.451,0,0,0-.954,3.415,5.1,5.1,0,0,0,.954,3.317,3.292,3.292,0,0,0,2.7,1.161,3.188,3.188,0,0,0,2.654-1.189" transform="translate(-214.469 -36.376)" fill="#3c3f40"/>
    <path id="Path_9" data-name="Path 9" d="M415.68,66.554v8.571h-3.456v-8.4a3.742,3.742,0,0,0-.636-2.419,2.414,2.414,0,0,0-1.963-.761,3.361,3.361,0,0,0-2.543,1.009,3.691,3.691,0,0,0-.968,2.668v7.907h-3.428V65.116a31.591,31.591,0,0,0-.221-3.954H405.7l.249,2.3a5.06,5.06,0,0,1,1.95-1.963,5.576,5.576,0,0,1,2.778-.691q5,0,5,5.751" transform="translate(-240.777 -36.376)" fill="#3c3f40"/>
    <path id="Path_10" data-name="Path 10" d="M456.714,61.162V75.124h-3.4V72.885a4.486,4.486,0,0,1-1.825,1.811,5.564,5.564,0,0,1-2.709.65,5.951,5.951,0,0,1-3.235-.885,5.841,5.841,0,0,1-2.184-2.516,8.739,8.739,0,0,1-.774-3.787,8.882,8.882,0,0,1,.788-3.829,6.171,6.171,0,0,1,2.2-2.6,5.709,5.709,0,0,1,3.207-.926,5.564,5.564,0,0,1,2.709.65,4.488,4.488,0,0,1,1.825,1.811v-2.1Zm-4.341,10.285a5.275,5.275,0,0,0,.94-3.346,5.375,5.375,0,0,0-.94-3.4,3.22,3.22,0,0,0-2.682-1.189,3.183,3.183,0,0,0-2.668,1.231,5.451,5.451,0,0,0-.954,3.415,5.1,5.1,0,0,0,.954,3.317,3.292,3.292,0,0,0,2.7,1.161,3.189,3.189,0,0,0,2.654-1.189" transform="translate(-264.78 -36.376)" fill="#3c3f40"/>
    <path id="Path_11" data-name="Path 11" d="M209.308,107.613h2.434a2.181,2.181,0,0,1,1.47.454,1.749,1.749,0,0,1,0,2.507,2.172,2.172,0,0,1-1.466.458h-1.731v2.682h-.7Zm2.374,2.837a1.54,1.54,0,0,0,1.02-.291,1.041,1.041,0,0,0,.343-.84,1.03,1.03,0,0,0-.343-.836,1.558,1.558,0,0,0-1.02-.287h-1.671v2.253Z" transform="translate(-125.22 -64.38)" fill="#3c3f40"/>
    <path id="Path_12" data-name="Path 12" d="M236.082,107.613h.7v6.1h-.7v-2.8h-3.659v2.8h-.694v-6.1h.694v2.708h3.659Z" transform="translate(-138.633 -64.38)" fill="#3c3f40"/>
    <path id="Path_13" data-name="Path 13" d="M257.349,113.3a2.478,2.478,0,0,1-.964-1.084,4.266,4.266,0,0,1,0-3.321,2.462,2.462,0,0,1,.96-1.08,3.105,3.105,0,0,1,2.965,0,2.459,2.459,0,0,1,.96,1.08,4.257,4.257,0,0,1,0,3.316,2.515,2.515,0,0,1-.964,1.085,3.053,3.053,0,0,1-2.948,0m2.982-.883a3.5,3.5,0,0,0,0-3.728,2.082,2.082,0,0,0-3.03,0,2.844,2.844,0,0,0-.54,1.856,2.875,2.875,0,0,0,.54,1.868,2.063,2.063,0,0,0,3.025,0" transform="translate(-153.181 -64.279)" fill="#3c3f40"/>
    <path id="Path_14" data-name="Path 14" d="M281.167,113.715v-5.5h-2.126v-.6H284v.6h-2.125v5.5Z" transform="translate(-166.938 -64.381)" fill="#3c3f40"/>
    <path id="Path_15" data-name="Path 15" d="M301.869,113.3a2.478,2.478,0,0,1-.964-1.084,4.266,4.266,0,0,1,0-3.321,2.462,2.462,0,0,1,.96-1.08,3.105,3.105,0,0,1,2.965,0,2.46,2.46,0,0,1,.96,1.08,4.257,4.257,0,0,1,0,3.316,2.515,2.515,0,0,1-.964,1.085,3.053,3.053,0,0,1-2.948,0m2.982-.883a3.5,3.5,0,0,0,0-3.728,2.083,2.083,0,0,0-3.03,0,2.844,2.844,0,0,0-.54,1.856,2.876,2.876,0,0,0,.54,1.868,2.063,2.063,0,0,0,3.025,0" transform="translate(-179.816 -64.279)" fill="#3c3f40"/>
    <path id="Path_16" data-name="Path 16" d="M330.615,110.435v2.828a3.566,3.566,0,0,1-.943.3,6.058,6.058,0,0,1-1.183.116,3.14,3.14,0,0,1-1.568-.373,2.446,2.446,0,0,1-1.007-1.076,3.756,3.756,0,0,1-.347-1.679,3.712,3.712,0,0,1,.347-1.667,2.477,2.477,0,0,1,.994-1.071,3.01,3.01,0,0,1,1.53-.372,3.469,3.469,0,0,1,1.178.192,2.458,2.458,0,0,1,.921.579l-.274.54a3.159,3.159,0,0,0-.87-.544,2.592,2.592,0,0,0-.955-.167,1.975,1.975,0,0,0-1.59.647,3.431,3.431,0,0,0,.012,3.754,2.069,2.069,0,0,0,1.646.646,4.505,4.505,0,0,0,1.466-.239v-1.86h-1.517v-.557Z" transform="translate(-194.773 -64.279)" fill="#3c3f40"/>
    <path id="Path_17" data-name="Path 17" d="M355.037,113.715h-.746l-.754-2.031a.873.873,0,0,0-.382-.505,1.506,1.506,0,0,0-.689-.129h-1.526v2.665h-.694v-6.1h2.425a2.316,2.316,0,0,1,1.513.437,1.546,1.546,0,0,1,.527,1.26,1.6,1.6,0,0,1-.313,1.007,1.689,1.689,0,0,1-.9.578.826.826,0,0,1,.454.227,1.424,1.424,0,0,1,.317.527Zm-2.425-3.248q1.406,0,1.406-1.148a1.024,1.024,0,0,0-.343-.844,1.67,1.67,0,0,0-1.063-.278h-1.671v2.271Z" transform="translate(-209.538 -64.38)" fill="#3c3f40"/>
    <path id="Path_18" data-name="Path 18" d="M377.2,113.715l-.669-1.568h-3.187l-.677,1.568h-.728l2.682-6.1h.617l2.682,6.1Zm-3.608-2.151h2.691l-1.345-3.136Z" transform="translate(-222.516 -64.38)" fill="#3c3f40"/>
    <path id="Path_19" data-name="Path 19" d="M397.625,107.613h2.434a2.18,2.18,0,0,1,1.47.454,1.749,1.749,0,0,1,0,2.507,2.172,2.172,0,0,1-1.466.458h-1.731v2.682h-.7ZM400,110.45a1.538,1.538,0,0,0,1.02-.291,1.04,1.04,0,0,0,.343-.84,1.029,1.029,0,0,0-.343-.836A1.556,1.556,0,0,0,400,108.2h-1.671v2.253Z" transform="translate(-237.882 -64.38)" fill="#3c3f40"/>
    <path id="Path_20" data-name="Path 20" d="M424.4,107.613h.7v6.1h-.7v-2.8h-3.659v2.8h-.695v-6.1h.695v2.708H424.4Z" transform="translate(-251.295 -64.38)" fill="#3c3f40"/>
    <path id="Path_21" data-name="Path 21" d="M444.917,113.715v-6.1h3.857v.583h-3.162v2.125H448.6v.591h-2.991v2.22h3.162v.583Z" transform="translate(-266.175 -64.381)" fill="#3c3f40"/>
    <path id="Path_22" data-name="Path 22" d="M470.784,113.715h-.745l-.755-2.031a.873.873,0,0,0-.382-.505,1.506,1.506,0,0,0-.689-.129h-1.525v2.665h-.695v-6.1h2.425a2.314,2.314,0,0,1,1.513.437,1.545,1.545,0,0,1,.527,1.26,1.6,1.6,0,0,1-.313,1.007,1.689,1.689,0,0,1-.9.578.827.827,0,0,1,.454.227,1.424,1.424,0,0,1,.317.527Zm-2.425-3.248q1.405,0,1.406-1.148a1.024,1.024,0,0,0-.343-.844,1.671,1.671,0,0,0-1.063-.278h-1.671v2.271Z" transform="translate(-278.784 -64.38)" fill="#3c3f40"/>
  </g>
</svg>
