<svg xmlns="http://www.w3.org/2000/svg" width="43.355" height="27.18" viewBox="0 0 43.355 27.18">
  <path id="Icon_awesome-behance" data-name="Icon awesome-behance" d="M17.462,17.48a5.712,5.712,0,0,0,3.643-5.57c0-5.314-3.959-6.609-8.528-6.609H0V31.977H12.931c4.847,0,9.4-2.326,9.4-7.745,0-3.349-1.588-5.826-4.87-6.752ZM5.863,9.855h5.5c2.115,0,4.019.595,4.019,3.048,0,2.266-1.483,3.176-3.575,3.176H5.863Zm6.27,17.59H5.863V20.1h6.39c2.582,0,4.215,1.076,4.215,3.809,0,2.695-1.949,3.538-4.335,3.538ZM39.117,9.328H28.3V6.7H39.117V9.328ZM43.355,22.6c0-5.713-3.342-10.477-9.4-10.477-5.886,0-9.883,4.426-9.883,10.222,0,6.014,3.786,10.139,9.883,10.139,4.614,0,7.6-2.077,9.04-6.5H38.312c-.5,1.648-2.582,2.522-4.192,2.522-3.109,0-4.742-1.822-4.742-4.915H43.31C43.332,23.276,43.355,22.937,43.355,22.6ZM29.385,20.25a4.146,4.146,0,0,1,4.4-4.125c2.665,0,4,1.566,4.23,4.125Z" transform="translate(0 -5.302)" fill="#3c3f40"/>
</svg>
