<svg xmlns="http://www.w3.org/2000/svg" width="33.032" height="33.032" viewBox="0 0 33.032 33.032">
  <path id="Path_144" data-name="Path 144" d="M16.516,0A16.516,16.516,0,1,0,33.032,16.516,16.516,16.516,0,0,0,16.516,0m8.3,13.385q.012.256.011.515a11.324,11.324,0,0,1-17.432,9.54,8.108,8.108,0,0,0,.95.055,7.989,7.989,0,0,0,4.945-1.7,3.986,3.986,0,0,1-3.72-2.765,3.974,3.974,0,0,0,1.8-.068,3.983,3.983,0,0,1-3.194-3.9c0-.017,0-.034,0-.051a3.952,3.952,0,0,0,1.8.5,3.985,3.985,0,0,1-1.233-5.315,11.3,11.3,0,0,0,8.207,4.16,3.984,3.984,0,0,1,6.785-3.631,7.981,7.981,0,0,0,2.528-.966,4,4,0,0,1-1.751,2.2,7.946,7.946,0,0,0,2.286-.627,8.1,8.1,0,0,1-1.986,2.062" fill="#3c3f40"/>
</svg>
